<?xml version="1.0" encoding="UTF-8" standalone="no"?>
<svg
   version="1.1"
   x="0"
   y="0"
   width="75.599007"
   height="38.09005"
   viewBox="0 0 75.599007 38.09005"
   id="svg9"
   sodipodi:docname="suse-white-logo-green.svg"
   inkscape:version="1.1.1 (3bf5ae0d25, 2021-09-20)"
   xmlns:inkscape="http://www.inkscape.org/namespaces/inkscape"
   xmlns:sodipodi="http://sodipodi.sourceforge.net/DTD/sodipodi-0.dtd"
   xmlns="http://www.w3.org/2000/svg"
   xmlns:svg="http://www.w3.org/2000/svg">
  <defs
     id="defs13" />
  <sodipodi:namedview
     id="namedview11"
     pagecolor="#ffffff"
     bordercolor="#666666"
     borderopacity="1.0"
     inkscape:pageshadow="2"
     inkscape:pageopacity="0.0"
     inkscape:pagecheckerboard="0"
     showgrid="false"
     fit-margin-top="0"
     fit-margin-left="0"
     fit-margin-right="0"
     fit-margin-bottom="0"
     inkscape:zoom="5.3888889"
     inkscape:cx="104.84536"
     inkscape:cy="16.237113"
     inkscape:window-width="1920"
     inkscape:window-height="1142"
     inkscape:window-x="0"
     inkscape:window-y="360"
     inkscape:window-maximized="1"
     inkscape:current-layer="svg9" />
  <path
     d="m 71.540592,11.564305 c -0.477,-0.492 -1.262,-0.492 -1.738,0 -0.536,0.534 -0.472,1.456 0.192,1.897 0.406,0.269 0.948,0.269 1.353,0 0.662,-0.441 0.727,-1.363 0.193,-1.897 m -1.589,-4.1790001 c -3.284,-0.769 -6.234,2.182 -5.463,5.4640001 0.391,1.671 1.719,2.998 3.392,3.39 3.284,0.772 6.236,-2.181 5.463,-5.465 -0.394,-1.6720001 -1.721,-2.9980001 -3.392,-3.3890001 m -21.681,18.4870001 c -2.14,-0.791 -2.967,-0.632 -5.703,-0.594 -1.896,0.024 -1.965,-0.041 -4.129,-0.041 -0.669,0 -0.915,3.205 1.504,3.871 1.059,0.291 2.203,0.475 3,1.289 0.353,0.36 0.551,0.904 -0.264,0.904 h -6.006 c -1.051,0 -2.043,0.024 -2.846,-0.656 -1.213,-1.025 -1.779,-2.435 -2.386,-3.834 -0.63,-1.455 -1.309,-2.888 -2.107,-4.259 -1.586,-2.726 -3.683,-5.192 -6.496,-6.699 -3.512,-1.884 -9.473,-2.818 -14.193,0.807 -4.974,3.819 -3.909,10.973 0.442,14.473 1.718,1.383 3.958,1.961 6.16,1.831 4.303,-0.249 7.476,-3.42 6.688,-7.323 -0.263,-1.306 -1.025,-2.543 -2.173,-3.217 -0.816,-0.477 -1.784,-0.646 -2.729,-0.648 -1.016,-0.003 -2.097,0.206 -2.828,0.913 -0.864,0.837 -1.004,2.316 -0.313,3.301 0.382,0.546 1.004,1.007 0.899,1.718 -0.072,0.481 -0.469,0.839 -0.943,0.945 -0.807,0.18 -1.546,-0.28 -2.091,-0.842 -1.398,-1.44 -1.836,-3.732 -1.066,-5.587 1.006,-2.429 3.804,-3.765 6.431,-3.678 3.387,0.114 6.58,2.348 7.968,5.439 1.389,3.093 0.973,6.888 -0.941,9.686 -4.253,6.216 -14.756,5.482 -19.636,0.24 -3.061,-3.289 -4.72399997,-6.48 -4.49099997,-12.423 0.164,-4.199 2.58699997,-8.336 5.67599997,-11.246 5.033,-4.7430001 11.661,-7.9860001 18.406,-9.38400009 4.096,-0.847 8.325,-1.045 12.483,-0.63 3.667,0.364 7.312,1.03599999 10.836,2.12699999 1.75,0.545 3.471,1.193 5.135,1.957 1.468,0.674 3.392,1.409 4.535,2.573 0,-2.108 -0.082,-4.424 -0.082,-6.03699999 0,-0.615 0.647,-1.031 1.201,-0.768 2.385,1.10699999 8.035,3.77599999 11.802,5.49899999 5.05,2.307 5.407,7.7500001 5.583,12.5760001 0.004,0.108 0.009,0.219 -0.039,0.315 -0.159,0.331 -1.01,0.241 -1.322,0.245 -0.604,0.006 -1.515,0.002 -2.119,0.03 -1.205,0.052 -2.379,0.03 -3.585,-0.03 -2.229,-0.108 -4.384,-1.102 -5.827,-2.309 -0.144,-0.122 -0.61,-0.254 -0.829,-0.026 -0.228,0.235 -0.15,0.603 -0.027,0.729 0.828,0.835 1.725,1.375 2.769,1.914 1.326,0.681 2.772,0.854 4.238,0.939 1.57,0.093 3.151,0.069 4.718,-0.091 1.308,-0.134 1.646,-0.224 0.355,0.735 -1.134,0.843 -2.449,1.449 -3.783,1.897 -1.914,0.652 -3.934,0.973 -5.951,1.029 -1.223,0.033 -2.446,-0.03 -3.659,-0.188 -0.628,-0.078 -1.251,-0.192 -1.881,-0.256 -0.511,-0.052 -1.041,-0.147 -1.55,-0.037 -0.463,0.101 -0.89,0.351 -1.181,0.728 -0.399,0.521 -0.537,1.951 -0.306,2.571 0.445,1.201 1.424,1.899 2.458,2.515 1.12,0.666 2.593,0.894 2.88,2.167 0.059,0.266 -2.322,0.273 -2.592,0.269 h -3.169 c 0,0 -1.722,0.041 -2.393,-0.203 -0.021,-0.006 -0.039,-0.016 -0.061,-0.027 -0.364,-0.196 -0.522,-0.684 -0.646,-1.054 -0.177,-0.521 -0.487,-1.042 -0.864,-1.581 -0.716,-1.022 -1.816,-2.14 -2.96,-2.564 m 23.997,-14.062 c 0,1.858 -1.504,3.362 -3.361,3.362 -1.856,0 -3.36,-1.504 -3.36,-3.362 0,-1.8550001 1.504,-3.3590001 3.36,-3.3590001 1.857,0 3.361,1.504 3.361,3.3590001"
     fill="#30ba78"
     id="path4" />
</svg>
